# xmcd
#
# Track frame offsets:
#	150
#	9587
#	22312
#	38345
#	54442
#	65705
#	83125
#	100525
#	112425
#	128662
#	142482
#	155977
#
# Disc length: 2308 seconds
#
# Revision: 4
# Processed by: cddbd v1.5.1PL2 Copyright (c) Steve Scherf et al.
# Submitted via: dBpowerAMP V4.0
#
DISCID=ac09020c
DTITLE=Various Artist - Country Undercover
DYEAR=1998
DGENRE=Country
TTITLE0=Vince Gill - When Will I Be Loved
TTITLE1=Joe Ely - Good Rockin' Tonight
TTITLE2=John Anderson - Crazy Love
TTITLE3=Mavericks - All That Heaven Will Allow
TTITLE4=Tanya Tucker - Ain't That A Shame
TTITLE5=Marty Stuart and Steve Earle - Crying, Waiting, Hoping
TTITLE6=Trisha Yearwood and George Jones - Bartender's Blues
TTITLE7=Kenny Rogers - Me and Bobby McGee
TTITLE8=Tanya Tucker - The Night They Drove Old Dixie Down
TTITLE9=Rodney Crowell - Candy Man
TTITLE10=Conway Twitty and Loretta Lynn - Bye Bye Love
TTITLE11=Steve Earle - What's Your Name
EXTD=
EXTT0=
EXTT1=
EXTT2=
EXTT3=
EXTT4=
EXTT5=
EXTT6=
EXTT7=
EXTT8=
EXTT9=
EXTT10=
EXTT11=
PLAYORDER=
